Exact Audio Copy V1.0 beta 3 from 29. August 2011

EAC 取り込みログファイル 日付 : 9. 1月 2012, 16:46

ゴールデンボンバー / ゴールデン・アルバム

使用ドライブ   : ATAPI   iHAS324   B   Adapter: 0  ID: 1

読み込みモード            : セキュアモード
ドライブが正確なデータ転送能力を持つ : はい
オーディオキャッシュを使用できる   : はい
C2エラー情報を検出する       : はい

読み込みサンプルオフセット訂正値       : 0
リードイン・リードアウトをオーバーリードする : いいえ
欠落したオフセットサンプルを無音で補完する  : はい
曲の先頭と末端の無音領域を削除する      : いいえ
CRC計算で無音のサンプルを使用するか    : はい
使用インターフェース             :  XP/Vista/Win 7のWin32標準インターフェイス 
ギャップ情報を取得する            : 検出されませんでした。前のトラックに追加します

使用出力モード         : ユーザー定義のエンコーダ
ビットレートの指定       : 896 kBit/s
品質              : 高
ID3 タグを追加する     : はい
エンコーダ           : C:\Program Files\Exact Audio Copy\Flac\flac.exe
追加コマンドラインオプション  : -T "artist=%artist%" -T "title=%title%" -T "album=%albumtitle%" -T "date=%year%" -T "tracknumber=%tracknr%" -T "genre=%genre%" -5 %source%


TOC情報を抜き出します

     トラック |   スタート   |    長さ    | 始めのセクター | 最終セクター 
    -----------------------------------------------
       1  |  0:00.00 |  0:50.69 |      0  |   3818 
       2  |  0:50.69 |  3:50.17 |   3819  |  21085 
       3  |  4:41.11 |  4:11.12 |  21086  |  39922 
       4  |  8:52.23 |  4:22.44 |  39923  |  59616 
       5  | 13:14.67 |  4:18.33 |  59617  |  78999 
       6  | 17:33.25 |  3:31.50 |  79000  |  94874 
       7  | 21:05.00 |  3:13.54 |  94875  | 109403 
       8  | 24:18.54 |  4:05.69 | 109404  | 127847 
       9  | 28:24.48 |  3:45.14 | 127848  | 144736 
      10  | 32:09.62 |  3:36.44 | 144737  | 160980 
      11  | 35:46.31 |  4:08.54 | 160981  | 179634 
      12  | 39:55.10 |  2:53.18 | 179635  | 192627 
      13  | 42:48.28 |  6:42.62 | 192628  | 222839 


トラック  1

     ファイル名 C:\Users\tomo\Desktop\music\01 パトス.wav

     ピークレベル 100.0 %
     取り込みスピード 1.4 X
     トラック品質 100.0 %
     コピーCRC 60E2124E
     コピー OK

トラック  2

     ファイル名 C:\Users\tomo\Desktop\music\02 デスメンタル.wav

     ピークレベル 100.0 %
     取り込みスピード 2.5 X
     トラック品質 100.0 %
     コピーCRC 00CD3372
     コピー OK

トラック  3

     ファイル名 C:\Users\tomo\Desktop\music\03 僕クエスト.wav

     ピークレベル 100.0 %
     取り込みスピード 2.8 X
     トラック品質 100.0 %
     コピーCRC 87A7E922
     コピー OK

トラック  4

     ファイル名 C:\Users\tomo\Desktop\music\04 夜汽車.wav

     ピークレベル 100.0 %
     取り込みスピード 2.1 X
     トラック品質 99.9 %
     コピーCRC 0DF7E872
     コピー OK

トラック  5

     ファイル名 C:\Users\tomo\Desktop\music\05 酔わせてモヒート.wav

     ピークレベル 100.0 %
     取り込みスピード 2.3 X
     トラック品質 99.9 %
     コピーCRC 873318E7
     コピー OK

トラック  6

     ファイル名 C:\Users\tomo\Desktop\music\06 成很酷.wav

     ピークレベル 100.0 %
     取り込みスピード 3.4 X
     トラック品質 100.0 %
     コピーCRC 53D32BFE
     コピー OK

トラック  7

     ファイル名 C:\Users\tomo\Desktop\music\07 さよなら冬美 -Euro Mix-.wav

     ピークレベル 100.0 %
     取り込みスピード 3.5 X
     トラック品質 100.0 %
     コピーCRC 381984A2
     コピー OK

トラック  8

     ファイル名 C:\Users\tomo\Desktop\music\08 今夜はトゥナイト.wav

     ピークレベル 100.0 %
     取り込みスピード 3.9 X
     トラック品質 100.0 %
     コピーCRC 54BCF22A
     コピー OK

トラック  9

     ファイル名 C:\Users\tomo\Desktop\music\09 もう会えなくなるなんて.wav

     ピークレベル 100.0 %
     取り込みスピード 4.0 X
     トラック品質 100.0 %
     コピーCRC 32645380
     コピー OK

トラック 10

     ファイル名 C:\Users\tomo\Desktop\music\10 今夜も眠れない (病的な意味で).wav

     ピークレベル 100.0 %
     取り込みスピード 4.1 X
     トラック品質 100.0 %
     コピーCRC EB34FCEF
     コピー OK

トラック 11

     ファイル名 C:\Users\tomo\Desktop\music\11 女々しくて -K-POPバージョン-.wav

     ピークレベル 100.0 %
     取り込みスピード 4.4 X
     トラック品質 100.0 %
     コピーCRC 1C7E3C4C
     コピー OK

トラック 12

     ファイル名 C:\Users\tomo\Desktop\music\12 愛なんていらねいよ.wav

     ピークレベル 100.0 %
     取り込みスピード 4.1 X
     トラック品質 100.0 %
     コピーCRC CB81661A
     コピー OK

トラック 13

     ファイル名 C:\Users\tomo\Desktop\music\13 広がる世界.wav

     ピークレベル 100.0 %
     取り込みスピード 5.0 X
     トラック品質 100.0 %
     コピーCRC F5C76AE7
     コピー OK

エラーは発生しませんでした

ステータス報告完了

====  E8FB6FCD74B0C448C9083B6E5B0BB9D78632ACF824B5085A53B8E1DDE2484932 ====
